<?xml version="1.0" encoding="UTF-8"?>
<svg xmlns="http://www.w3.org/2000/svg" version="1.1" viewBox="0 0 448 512">
  <defs>
    <style>
      .cls-1 {
        fill: #f8f8f9;
      }
    </style>
  </defs>
  <!-- Generator: Adobe Illustrator 28.7.1, SVG Export Plug-In . SVG Version: 1.2.0 Build 142)  -->
  <g>
    <g id="Layer_1">
      <path class="cls-1" d="M100.3,448H7.4V148.9h92.9v299.1ZM53.8,108.1C24.1,108.1,0,83.5,0,53.8,0,24.1,24.1,0,53.8,0c29.7,0,53.8,24.1,53.8,53.8,0,29.7-24.1,54.3-53.8,54.3ZM447.9,448h-92.7v-145.6c0-34.7-.7-79.2-48.3-79.2s-55.7,37.7-55.7,76.7v148.1h-92.8V148.9h89.1v40.8h1.3c12.4-23.5,42.7-48.3,87.9-48.3,94,0,111.3,61.9,111.3,142.3v164.3h-.1Z"/>
    </g>
  </g>
</svg>